<svg width="32" height="32" viewBox="0 0 32 32" fill="none" xmlns="http://www.w3.org/2000/svg">
<g clip-path="url(#clip0_4021_249)">
<path d="M0 15.3333C0 8.10513 0 4.49103 2.24551 2.24551C4.49103 0 8.10513 0 15.3333 0H16.6667C23.8949 0 27.509 0 29.7545 2.24551C32 4.49103 32 8.10513 32 15.3333V16.6667C32 23.8949 32 27.509 29.7545 29.7545C27.509 32 23.8949 32 16.6667 32H15.3333C8.10513 32 4.49103 32 2.24551 29.7545C0 27.509 0 23.8949 0 16.6667L0 15.3333Z" fill="#25D366"/>
<path fill-rule="evenodd" clip-rule="evenodd" d="M22.6138 9.37923C20.8593 7.63089 18.5258 6.66757 16.0395 6.66669C10.9163 6.66669 6.74676 10.8158 6.74498 15.9158C6.74409 17.5461 7.17236 19.1374 7.98568 20.5398L6.66699 25.3334L11.5941 24.0471C12.9516 24.7843 14.4802 25.1724 16.0355 25.1728H16.0395C21.1619 25.1728 25.3319 21.0233 25.3337 15.9233C25.3345 13.4516 24.3688 11.128 22.6138 9.37967V9.37923ZM16.0395 23.6107H16.0364C14.6504 23.6103 13.2908 23.2395 12.1044 22.5392L11.8223 22.3725L8.89838 23.1357L9.67872 20.2986L9.49511 20.0076C8.7219 18.7835 8.31324 17.3687 8.31413 15.9162C8.31591 11.6775 11.7813 8.22875 16.0427 8.22875C18.106 8.22963 20.0455 9.03018 21.5041 10.4836C22.9628 11.9365 23.7654 13.8685 23.7645 15.9224C23.7627 20.1615 20.2973 23.6103 16.0395 23.6103V23.6107ZM20.2768 17.853C20.0446 17.7373 18.9029 17.1784 18.6898 17.1013C18.4768 17.0241 18.3222 16.9855 18.1675 17.217C18.0129 17.4486 17.5677 17.9692 17.4322 18.1231C17.2967 18.2775 17.1612 18.2966 16.929 18.1808C16.6969 18.065 15.9486 17.8211 15.0613 17.0338C14.371 16.4209 13.9048 15.6643 13.7694 15.4327C13.6339 15.2013 13.7551 15.0762 13.871 14.9613C13.9753 14.8575 14.1032 14.6912 14.2195 14.5564C14.3358 14.4215 14.3741 14.3249 14.4517 14.171C14.5292 14.0166 14.4905 13.8818 14.4325 13.766C14.3746 13.6503 13.9102 12.5126 13.7164 12.0501C13.5278 11.5995 13.3362 11.6607 13.1941 11.6531C13.0586 11.6465 12.9039 11.6451 12.7489 11.6451C12.5938 11.6451 12.3424 11.7028 12.1294 11.9343C11.9164 12.1658 11.3165 12.7251 11.3165 13.8623C11.3165 14.9994 12.1486 16.0989 12.2649 16.2533C12.3812 16.4076 13.9026 18.7418 16.2321 19.7433C16.786 19.9815 17.2187 20.1238 17.5561 20.2303C18.1123 20.4064 18.6185 20.3815 19.0187 20.3221C19.4649 20.2556 20.3927 19.7628 20.5861 19.223C20.7795 18.6833 20.7795 18.2202 20.7216 18.124C20.6637 18.0278 20.5086 17.9697 20.2764 17.8539L20.2768 17.853Z" fill="white"/>
</g>
<defs>
<clipPath id="clip0_4021_249">
<rect width="32" height="32" fill="white"/>
</clipPath>
</defs>
</svg>
