<svg width="36" height="48" viewBox="0 0 36 48" fill="none" xmlns="http://www.w3.org/2000/svg">
<path fill-rule="evenodd" clip-rule="evenodd" d="M16.5188 1.30857C14.0967 3.45488 11.8735 4.68968 9.06004 5.45129C7.51168 5.8705 6.54225 5.97662 3.68014 6.04023C1.07533 6.09806 0.961326 6.10816 0.685212 6.30505C0.0530335 6.75603 0.0880983 6.10357 0.123898 16.7713C0.158595 27.1252 0.148131 26.8823 0.653727 29.058C1.64564 33.3263 4.03905 37.2176 7.68205 40.4848C9.59538 42.2009 10.929 43.1786 14.4749 45.4653C16.8146 46.9741 17.6641 47.4531 17.9999 47.4531C18.3356 47.4531 19.1851 46.9741 21.5248 45.4653C24.1027 43.8029 25.0707 43.1363 26.3294 42.1562C31.799 37.8978 34.6699 33.3526 35.6812 27.3504C35.8277 26.4806 35.8467 25.449 35.8758 16.7713C35.9116 6.10357 35.9467 6.75603 35.3145 6.30505C35.0384 6.10816 34.9244 6.09806 32.3196 6.04023C29.4575 5.97662 28.488 5.8705 26.9397 5.45129C24.1262 4.68968 21.903 3.45488 19.4809 1.30857L18.6214 0.546875H17.9999H17.3783L16.5188 1.30857ZM16.623 11.6616C13.2982 12.0275 10.1861 13.8101 8.1422 16.5189C6.28055 18.9862 5.39392 22.0784 5.69271 25.0618C5.86822 26.8141 6.22345 28.0293 7.01902 29.5994C9.27117 34.0436 14.189 36.7538 19.1075 36.2613C20.8556 36.0862 22.0756 35.7302 23.6337 34.9408C26.7942 33.3394 29.1151 30.4062 30.0161 26.8747C30.5793 24.6674 30.44 22.0322 29.6411 19.7775C29.0837 18.2048 27.809 16.2293 26.6156 15.0887C23.9114 12.5042 20.2808 11.259 16.623 11.6616ZM16.3145 14.4566C14.3076 14.836 12.6509 15.712 11.2043 17.1586C9.71186 18.651 8.8581 20.301 8.4912 22.4015C8.30312 23.4789 8.36196 25.1392 8.62595 26.203C9.5079 29.7572 12.1961 32.4339 15.7968 33.3432C16.914 33.6253 19.0857 33.6253 20.2029 33.3432C23.8228 32.429 26.4747 29.777 27.3889 26.1571C27.6711 25.0399 27.6711 22.8683 27.3889 21.7511C26.4796 18.1505 23.8104 15.4692 20.2488 14.5788C19.2578 14.3311 17.3001 14.2702 16.3145 14.4566ZM22.9567 19.9692C22.7606 20.0537 21.4643 21.2764 19.6309 23.1058L16.6265 26.104L14.9495 24.4428C13.5859 23.092 13.1996 22.7598 12.8824 22.6649C11.8522 22.3566 10.8973 23.3103 11.2008 24.3442C11.297 24.6718 11.6782 25.0971 13.579 26.9981C15.48 28.8989 15.9052 29.28 16.2328 29.3762C17.0502 29.6162 17.0351 29.6278 20.963 25.7125C24.4709 22.2159 24.8843 21.7401 24.8843 21.2003C24.8843 20.7626 24.528 20.2123 24.1155 20.0125C23.656 19.7901 23.3946 19.7803 22.9567 19.9692Z" fill="#28B6FF"/>
</svg>
