<svg width="48" height="48" viewBox="0 0 48 48" fill="none" xmlns="http://www.w3.org/2000/svg">
<path fill-rule="evenodd" clip-rule="evenodd" d="M22.213 1.13491L20.4725 2.25166L18.6115 2.02057C17.5878 1.89344 16.6414 1.79135 16.5082 1.79351C16.2957 1.79707 16.1337 2.01438 15.1878 3.56632C14.1654 5.2436 14.0903 5.34082 13.7347 5.44798C13.5284 5.51013 12.6379 5.81201 11.7558 6.11866L10.1518 6.67629L9.9365 8.73916L9.72115 10.802L8.22659 12.2756L6.73193 13.7493L7.44181 15.7318L8.15159 17.7144L7.44772 19.6617L6.74375 21.609L8.23737 23.1133L9.73109 24.6176L9.93612 26.6332C10.0489 27.7418 10.1702 28.6794 10.2058 28.7167C10.2414 28.7541 11.0289 29.0399 11.9557 29.3517C12.8826 29.6636 13.7535 29.9637 13.8912 30.0186C14.0733 30.0913 14.4101 30.5563 15.1285 31.7274C15.6713 32.6123 16.1704 33.4091 16.2375 33.4981C16.3527 33.6507 16.4769 33.6457 18.4261 33.4114L20.4926 33.1631L22.2016 34.2575C23.1416 34.8595 23.9507 35.352 23.9997 35.352C24.0488 35.352 24.86 34.8601 25.8024 34.2589L27.5159 33.1658L29.3909 33.3864C30.4222 33.5077 31.3644 33.6094 31.4847 33.6123C31.6691 33.6168 31.8708 33.3465 32.7713 31.8883C33.3586 30.9372 33.8931 30.1291 33.9588 30.0925C34.0246 30.0559 34.9009 29.7458 35.9063 29.4034C36.9116 29.061 37.7622 28.751 37.7967 28.7148C37.8312 28.6786 37.9517 27.7418 38.0645 26.6332L38.2695 24.6176L39.7632 23.1133L41.2569 21.609L40.5529 19.6617L39.849 17.7144L40.5583 15.7332L41.2677 13.7519L39.773 12.2718L38.2783 10.7916L38.0635 8.73307L37.8486 6.67451L36.8072 6.30663C36.2345 6.10432 35.3436 5.80104 34.8273 5.63276L33.8887 5.32676L32.8117 3.56219C31.8803 2.03613 31.703 1.79726 31.5003 1.79491C31.3714 1.79341 30.4259 1.89588 29.3992 2.02263L27.5324 2.25298L25.7813 1.1306C24.8182 0.513257 24.0129 0.0104758 23.9918 0.0131946C23.9707 0.0159133 23.1702 0.520663 22.213 1.13491ZM22.9552 5.64513C19.5401 5.91054 16.3482 7.70463 14.2268 10.5514C13.419 11.6352 12.6233 13.3159 12.2719 14.6801C11.7612 16.663 11.7882 19.078 12.3425 20.9979C13.6128 25.3975 17.1253 28.6339 21.6854 29.6059C22.7517 29.8333 25.2489 29.8333 26.3152 29.6059C30.7625 28.6579 34.2287 25.5506 35.5647 21.3141C36.2018 19.2935 36.2657 16.7769 35.7326 14.7001C35.2706 12.9 34.3168 11.0965 33.0955 9.71294C30.5217 6.79741 26.8873 5.33941 22.9552 5.64513ZM22.805 8.44563C20.6659 8.74685 18.7903 9.7122 17.2725 11.2933C16.0457 12.5711 15.2244 14.1308 14.8489 15.8957C14.6596 16.7856 14.6656 18.6068 14.8609 19.5493C15.5742 22.9905 18.057 25.6566 21.5159 26.6959C22.2938 26.9296 22.4878 26.9494 24.0003 26.9494C25.5099 26.9494 25.7083 26.9292 26.4847 26.6971C29.9046 25.6744 32.4342 22.9574 33.1394 19.5493C33.3323 18.6172 33.3393 16.8887 33.1542 15.9457C32.4612 12.4171 29.7552 9.55498 26.2777 8.67279C25.2764 8.41882 23.7188 8.31691 22.805 8.44563ZM10.6521 34.3442C8.27918 41.7224 7.57128 43.9854 7.62068 44.0349C7.673 44.0871 12.5924 43.8513 13.8334 43.737L14.4008 43.6848L17.1051 45.8482C18.5923 47.0382 19.8197 48.0005 19.8325 47.9866C19.9272 47.8838 22.9727 38.1525 22.9313 38.0854C22.902 38.0381 22.2077 37.5724 21.3883 37.0507C20.2362 36.3169 19.8269 36.103 19.5822 36.1066C19.4083 36.1091 18.2956 36.231 17.1097 36.3774C15.7734 36.5424 14.9181 36.6105 14.8605 36.5565C14.8094 36.5086 14.2162 35.5745 13.5422 34.4809C12.544 32.8612 12.257 32.463 11.9945 32.333C11.3784 32.028 11.4145 31.9739 10.6521 34.3442ZM36.1205 32.2888C35.9546 32.3493 35.7599 32.4621 35.688 32.5395C35.616 32.6168 35.0205 33.5552 34.3647 34.6248C33.7088 35.6943 33.144 36.585 33.1096 36.604C33.0753 36.6231 32.098 36.5201 30.9378 36.3751C29.7777 36.2301 28.6687 36.1094 28.4734 36.1068C28.1817 36.1028 27.8637 36.263 26.6922 37.004C25.9077 37.5002 25.208 37.9604 25.1372 38.0268C25.029 38.1281 25.2581 38.9284 26.5767 43.0544C27.4392 45.7532 28.1554 47.9727 28.1682 47.9866C28.1809 48.0005 29.4074 47.0389 30.8937 45.8497L33.5962 43.6877L34.2123 43.7389C35.6581 43.8594 40.3326 44.0822 40.3818 44.0329C40.4295 43.9852 39.7099 41.6864 37.3485 34.3442C36.936 33.0618 36.6011 32.1674 36.5349 32.1716C36.4729 32.1755 36.2864 32.2282 36.1205 32.2888Z" fill="#28B6FF"/>
</svg>
