<svg width="48" height="48" viewBox="0 0 48 48" fill="none" xmlns="http://www.w3.org/2000/svg">
<path fill-rule="evenodd" clip-rule="evenodd" d="M21.183 3.19481C21.0468 3.30187 20.8901 3.474 20.8348 3.57731C20.7796 3.68053 20.6558 4.75894 20.5599 5.97375C20.4639 7.18847 20.3512 8.21156 20.3094 8.24719C20.2676 8.28281 19.9592 8.38547 19.624 8.47519C18.7208 8.71697 17.2518 9.31519 16.2987 9.82931L15.4578 10.2829L13.7761 8.83659C12.8511 8.04122 11.9851 7.34869 11.8514 7.29778C11.3254 7.09725 11.1221 7.24003 9.19433 9.165C7.26318 11.0933 7.12584 11.2889 7.32862 11.8222C7.37924 11.9553 8.07027 12.8197 8.86424 13.743L10.3078 15.4219L9.71962 16.5469C9.19321 17.5536 8.37402 19.7123 8.37402 20.0928C8.37402 20.1731 8.33062 20.2658 8.27755 20.2986C8.22449 20.3314 7.19259 20.4369 5.98452 20.5331C4.77646 20.6293 3.70518 20.7524 3.60393 20.8066C3.50268 20.8607 3.33215 21.0165 3.22509 21.1527C3.03852 21.3898 3.03027 21.5099 3.03027 24C3.03027 26.4901 3.03852 26.6102 3.22509 26.8473C3.33215 26.9835 3.50268 27.1393 3.60393 27.1934C3.70518 27.2476 4.77646 27.3707 5.98452 27.4669C7.19259 27.5631 8.22449 27.6686 8.27755 27.7014C8.33062 27.7342 8.37402 27.8269 8.37402 27.9072C8.37402 28.2877 9.19321 30.4464 9.71962 31.4531L10.3078 32.5781L8.86424 34.257C8.07027 35.1803 7.37924 36.0447 7.32862 36.1778C7.12584 36.7111 7.26318 36.9067 9.19433 38.835C11.1221 40.76 11.3254 40.9028 11.8514 40.7022C11.9851 40.6513 12.8615 39.95 13.799 39.1437L15.5034 37.6778L15.7831 37.877C16.51 38.3947 19.596 39.6562 20.1352 39.6562C20.2089 39.6562 20.2959 39.6995 20.3286 39.7523C20.3612 39.805 20.4658 40.8353 20.5611 42.0415C20.6564 43.2479 20.7796 44.3195 20.8348 44.4227C20.8901 44.526 21.0468 44.6981 21.183 44.8052C21.4201 44.9917 21.5402 45 24.0303 45C26.5204 45 26.6405 44.9917 26.8776 44.8052C27.0138 44.6981 27.1704 44.526 27.2257 44.4227C27.281 44.3195 27.4047 43.2411 27.5006 42.0262C27.5966 40.8115 27.7093 39.7884 27.7511 39.7528C27.7929 39.7172 28.0865 39.6186 28.4035 39.5337C28.7205 39.449 29.2161 39.2911 29.5051 39.183L30.0303 38.9865V34.8568C30.0303 30.8367 30.0256 30.7305 29.8546 30.8557C28.4377 31.8933 27.3865 32.4235 26.1281 32.7353C24.9521 33.0266 23.106 33.0261 21.9265 32.7339C19.2671 32.0752 17.0942 30.2988 15.9226 27.8257C15.3007 26.5129 15.0888 25.5404 15.0888 24C15.0888 22.4605 15.3007 21.4872 15.9211 20.1775C16.8466 18.2239 18.2531 16.8168 20.2046 15.8923C21.5188 15.2698 22.4901 15.0583 24.0303 15.0592C24.897 15.0598 25.4972 15.1097 25.9345 15.2175C26.2858 15.3041 26.6081 15.375 26.6508 15.375C26.6934 15.375 26.5879 15.048 26.4162 14.6484C25.3893 12.2581 25.2762 9.40669 26.1066 6.84375C26.304 6.23456 26.9838 4.77881 27.2449 4.40606C27.4437 4.12219 27.2998 3.58022 26.94 3.25781L26.6523 3H24.0414C21.54 3 21.4202 3.00816 21.183 3.19481ZM32.1512 3.52491C28.7486 5.80753 27.5643 10.3208 29.3982 14.0156C30.0396 15.3079 31.3084 16.6914 32.4503 17.3438L33.0247 17.6719L33.0275 29.7323C33.0302 41.4924 33.0349 41.8076 33.2162 42.3886C33.6866 43.8956 35.1938 45 36.7803 45C38.3667 45 39.8739 43.8956 40.3444 42.3886C40.5257 41.8076 40.5304 41.4924 40.5331 29.7323L40.5358 17.6719L41.1102 17.3438C41.4261 17.1633 41.997 16.7243 42.3787 16.3683C43.5326 15.2921 44.2454 14.1403 44.7169 12.5903C44.9405 11.855 44.9679 11.6134 44.9693 10.3594C44.9706 9.20278 44.9349 8.82272 44.768 8.21841C44.3653 6.76059 43.3307 5.08444 42.2846 4.19513C41.587 3.60206 40.7468 3.06469 40.63 3.13687C40.5618 3.17906 40.5303 4.58606 40.5303 7.58906V11.9795L38.6553 12.7315L36.7803 13.4836L34.9062 12.7319L33.0321 11.9802L33.0078 7.56825C32.992 4.71103 32.9501 3.14513 32.889 3.12478C32.8371 3.10744 32.505 3.28753 32.1512 3.52491Z" fill="#28B6FF"/>
</svg>
