<svg width="32" height="32" viewBox="0 0 32 32" fill="none" xmlns="http://www.w3.org/2000/svg">
<g clip-path="url(#clip0_4342_464)">
<path d="M16.0125 32.0249C24.8559 32.0249 32.0249 24.8559 32.0249 16.0125C32.0249 7.16903 24.8559 0 16.0125 0C7.16903 0 0 7.16903 0 16.0125C0 24.8559 7.16903 32.0249 16.0125 32.0249Z" fill="url(#paint0_linear_4342_464)"/>
<path fill-rule="evenodd" clip-rule="evenodd" d="M7.23331 15.8379C11.8974 13.7927 15.0151 12.4708 16.5864 11.8223C21.026 9.97662 21.9488 9.65238 22.5474 9.62743C22.6721 9.62743 22.9714 9.65238 23.171 9.80202C23.3206 9.92673 23.3705 10.1013 23.3954 10.226C23.4204 10.3507 23.4453 10.6251 23.4204 10.8496C23.171 13.3687 22.1483 19.5292 21.5996 22.3476C21.3752 23.5448 20.9262 23.9439 20.5022 23.9938C19.5794 24.0686 18.8561 23.3702 17.9582 22.7966C16.5614 21.8737 15.7633 21.3001 14.3915 20.4022C12.8202 19.3546 13.8428 18.781 14.7407 17.8581C14.9652 17.6087 19.0805 13.8924 19.1554 13.5433C19.1554 13.4934 19.1803 13.3437 19.0805 13.2689C18.9808 13.1941 18.8561 13.219 18.7563 13.244C18.6067 13.2689 16.3619 14.7654 11.9971 17.7085C11.3487 18.1574 10.775 18.357 10.2512 18.357C9.67758 18.357 8.58015 18.0327 7.75708 17.7584C6.75942 17.4341 5.96129 17.2595 6.03611 16.7108C6.086 16.4365 6.48506 16.1372 7.23331 15.8379Z" fill="white"/>
</g>
<defs>
<linearGradient id="paint0_linear_4342_464" x1="0" y1="16.0009" x2="32.0018" y2="16.0009" gradientUnits="userSpaceOnUse">
<stop stop-color="#2AABEE"/>
<stop offset="1" stop-color="#229ED9"/>
</linearGradient>
<clipPath id="clip0_4342_464">
<rect width="32" height="32" fill="white"/>
</clipPath>
</defs>
</svg>
